<svg xmlns="http://www.w3.org/2000/svg" fill="none" viewBox="0 0 597 129"><path fill="#000" d="M104.356 24.323v103.96h18.99V79.391h38.403v48.892h18.99V24.323h-18.99v36.075h-38.403V24.323h-18.99Z"/><path fill="#000" d="M241.138 24.323v103.96h56.372v-17.998h-37.381V83.177h32.418v-17.61h-32.418V42.32h37.381v-17.998h-56.372Z"/><path fill="#000" d="M353.887 24.323v103.96h18.99V42.32h37.38v86.963h18.991V24.323h-75.361Z"/><path fill="#000" d="M416.462 24.323v18h18.99v85.96h18.99V42.323h18.99v-18h-56.97Z"/><path fill="#000" d="M522.732 24.323v103.96h18.99V79.391h38.403v48.892h18.99V24.323h-18.99v36.075h-38.403V24.323h-18.99Z"/><path fill="#000" d="M0 128.283h596.889V0H0v128.283ZM19 19.002h558.89V109.28H19V19.002Z"/></svg>